# xmcd CD database file
#
# Track frame offsets:
#	150
#	14485
#	33178
#	46930
#	60798
#	76710
#	92315
#	106045
#	121665
#	139548
#	154785
#	167355
#	178613
#	195853
#
# Disc length: 2785 seconds
#
# Revision: 0
# Processed by: cddbd v1.4PL0 Copyright (c) Steve Scherf et al.
# Submitted via: CDex 1.50beta9
#
DISCID=880adf0e
DTITLE=Mac and O - You Were Never Too Far From My Mind
DYEAR=1900
DGENRE=Country
TTITLE0=Tiperary On My Mind
TTITLE1=Long long Before Your Time
TTITLE2=Barousque
TTITLE3=Galtee Mountain Boy
TTITLE4=How's She Cuttin'
TTITLE5=The Old Boreen
TTITLE6=Jig Selection
TTITLE7=Tipperary, Tipperary
TTITLE8=Dirty Old Town
TTITLE9=The Man From The Glen
TTITLE10=The Humour Is On Me Now
TTITLE11=Freight Train
TTITLE12=Never Too Far From My Mind
TTITLE13=Crossed My Mind
EXTD=
EXTT0=
EXTT1=
EXTT2=
EXTT3=
EXTT4=
EXTT5=
EXTT6=
EXTT7=
EXTT8=
EXTT9=
EXTT10=
EXTT11=
EXTT12=
EXTT13=
PLAYORDER=
